<svg version="1.1" id="Layer_1" xmlns="http://www.w3.org/2000/svg" xmlns:xlink="http://www.w3.org/1999/xlink" x="0px" y="0px"
	 width="100%" viewBox="-150 -100 1030 728" enable-background="new -150 -100 1030 728" xml:space="preserve">
<path fill="#FFFFFF" opacity="1.000000" stroke="none" 
	d="
M1.000000,282.000000 
	C1.000000,188.402115 1.000000,94.804222 1.000000,1.000000 
	C105.687469,1.000000 210.375076,1.000000 315.322998,1.264402 
	C313.404022,4.770488 310.355164,7.727296 309.184845,11.299537 
	C300.856079,36.721951 292.892487,62.264236 284.871094,87.786743 
	C284.009308,90.528893 283.522430,93.388893 282.891083,96.069214 
	C307.629059,96.069214 331.614990,96.069214 355.770447,96.069214 
	C355.591431,95.213173 355.448181,94.073120 355.113098,92.992546 
	C346.795197,66.168076 338.637939,39.290943 329.937897,12.590731 
	C328.545837,8.318577 324.707458,4.843548 322.000000,1.000006 
	C458.260406,1.000000 594.520813,1.000000 731.000000,1.000000 
	C731.000000,137.020813 731.000000,273.041748 730.678467,409.333618 
	C723.636169,378.190796 706.273193,354.904388 677.472046,340.352051 
	C660.289307,331.670135 642.011230,329.435211 623.086121,331.240173 
	C619.632324,331.569580 618.228516,330.799011 617.782654,326.901001 
	C615.526062,307.172729 610.588013,288.043427 598.907837,271.744385 
	C568.945923,229.934296 527.624695,212.974030 477.158051,220.125671 
	C424.970734,227.521164 383.673126,271.601807 377.855621,323.933868 
	C377.223358,329.621582 376.412170,335.289459 375.621460,341.454041 
	C360.792755,336.912323 346.520844,336.732605 332.013824,338.942291 
	C284.547058,346.172577 254.756653,392.075073 257.706085,424.574829 
	C258.201447,430.033417 257.599976,435.589722 258.061218,441.053955 
	C258.392090,444.973724 256.800385,446.367249 253.286346,447.045288 
	C241.862137,449.249512 231.125580,453.027710 222.424606,461.238373 
	C221.564285,462.050232 220.268875,462.401062 218.625427,463.249939 
	C218.028625,459.541687 217.570816,456.474365 217.037994,453.420074 
	C209.937927,412.721893 176.719345,388.134003 138.318878,392.907837 
	C103.662827,397.216217 77.225060,426.468933 78.347000,461.222382 
	C78.595360,468.915558 80.867691,476.589325 82.629883,484.174011 
	C84.212784,490.987030 84.225471,491.297821 77.382393,491.362762 
	C66.094933,491.469818 55.132751,493.009186 45.192612,498.827209 
	C33.477299,505.684296 25.119736,515.060974 23.000000,529.000000 
	C15.678837,529.000000 8.357675,529.000000 1.000000,529.000000 
	C1.000000,448.645782 1.000000,368.291534 1.310664,287.603821 
	C3.925174,292.341919 8.683447,294.171021 13.392651,295.793518 
	C26.904493,300.448853 40.474262,304.938019 54.048996,309.408295 
	C66.356438,313.461182 78.719208,317.346527 91.016159,321.430481 
	C94.503448,322.588654 95.999374,321.642487 96.126694,317.963196 
	C96.264580,313.977997 96.660507,310.001312 96.962639,306.022339 
	C97.944084,293.097015 98.880684,280.167938 99.950569,267.249908 
	C100.311745,262.889099 101.019142,258.556976 101.582138,254.102356 
	C99.818634,254.102356 98.788300,253.916214 97.848595,254.129425 
	C69.821060,260.488831 41.796791,266.862976 13.787520,273.302246 
	C8.449817,274.529388 3.912654,277.117096 1.000000,282.000000 
M251.601669,373.004028 
	C251.712006,372.659058 251.822357,372.314117 252.499786,371.609100 
	C275.174835,337.474579 306.562469,318.828369 347.931335,317.920227 
	C359.234711,317.672089 359.372864,317.699829 362.104126,306.362366 
	C371.996307,265.300018 395.273651,234.678696 432.984192,215.334351 
	C440.219879,211.622681 447.693390,208.374557 455.839905,205.000916 
	C462.606476,203.188156 469.373047,201.375397 476.544952,199.454041 
	C475.249207,197.091614 474.650787,195.703705 473.799774,194.493378 
	C460.723450,175.896088 444.852753,159.929749 425.824432,147.650269 
	C382.184265,119.488106 334.320557,110.123749 283.080444,117.849335 
	C230.844406,125.725067 187.879471,150.262558 155.398529,191.777542 
	C133.458542,219.819733 120.468246,251.846222 117.693611,287.893616 
	C115.692192,313.895538 118.461739,339.029480 127.109238,363.548187 
	C130.110306,372.057251 130.288895,371.632111 139.172562,372.171173 
	C150.413010,372.853333 162.137085,372.461853 172.723877,375.633453 
	C197.366760,383.015930 215.684982,399.008728 227.691116,421.978088 
	C229.182022,424.830383 231.129898,427.443787 233.114136,430.557220 
	C234.021255,429.254944 234.510071,428.768311 234.737122,428.180542 
	C235.155228,427.098175 235.577927,425.976685 235.724152,424.836304 
	C238.043945,406.742859 242.368683,389.254883 251.100830,373.039978 
	C251.100830,373.039978 251.053253,373.128510 251.601669,373.004028 
M235.020279,109.440826 
	C239.643600,107.778847 244.266922,106.116859 249.608871,104.196548 
	C247.707748,101.903168 246.547287,100.087341 245.001068,98.702080 
	C228.875305,84.254990 212.703156,69.859543 196.509140,55.488892 
	C190.409454,50.075981 184.320496,44.642265 178.029648,39.457024 
	C174.682205,36.697876 170.195435,35.856792 166.947678,38.617764 
	C164.698822,40.529552 163.915680,44.405014 163.007294,47.555759 
	C162.533661,49.198544 163.006363,51.214634 163.389893,52.988991 
	C169.009262,78.986061 174.643814,104.980042 180.379883,130.951538 
	C181.712418,136.984955 182.508072,136.950180 187.978409,134.021378 
	C203.346603,125.793312 218.860825,117.837997 235.020279,109.440826 
M412.179108,85.676559 
	C405.854370,91.075073 399.515778,96.457481 393.209473,101.877457 
	C388.559479,105.873947 388.836823,107.049179 394.686584,109.418404 
	C414.323822,117.371765 433.131195,126.818878 449.812683,140.098343 
	C451.424316,141.381271 453.292999,142.341354 454.976135,143.409256 
	C455.475555,142.777847 455.633179,142.666138 455.665222,142.525787 
	C462.389221,113.068642 469.234131,83.638039 475.728638,54.130314 
	C477.355835,46.737141 470.574402,41.470074 463.584320,44.404003 
	C460.420685,45.731865 457.425568,47.745056 454.767822,49.946857 
	C440.681030,61.616955 426.725739,73.445778 412.179108,85.676559 
M76.339340,178.163757 
	C88.399597,192.036270 100.459862,205.908783 112.412178,219.657120 
	C126.609673,198.900513 140.031448,179.278000 153.803040,159.144058 
	C143.930237,156.486588 134.181244,153.781982 124.389175,151.243439 
	C103.955086,145.946014 83.521072,140.643326 63.020966,135.611954 
	C60.543850,135.003983 57.190662,135.253738 55.055588,136.498672 
	C49.747849,139.593567 49.186359,144.734497 53.454834,150.149918 
	C60.771278,159.432327 68.404175,168.465317 76.339340,178.163757 
M480.666779,164.957733 
	C477.328796,166.253006 479.642151,167.896805 480.592804,169.079773 
	C487.574432,177.767532 494.502075,186.509384 501.823761,194.905396 
	C503.574158,196.912613 506.606476,198.321243 509.288269,198.902771 
	C518.530029,200.906815 527.856018,202.561829 537.202515,204.010880 
	C539.130432,204.309769 541.978516,203.827972 543.226013,202.553986 
	C554.288818,191.256271 565.126892,179.736847 575.934021,168.191818 
	C578.655273,165.284760 581.723022,162.369293 583.330261,158.861481 
	C584.531494,156.239868 584.832336,151.824341 583.363586,149.729340 
	C581.725891,147.393372 577.315552,145.147003 574.656982,145.663986 
	C543.517273,151.719406 512.480103,158.302551 480.666779,164.957733 
z"/>
<path fill="#4299AF" opacity="1.000000" stroke="none" 
	d="
M23.468658,529.000000 
	C25.119736,515.060974 33.477299,505.684296 45.192612,498.827209 
	C55.132751,493.009186 66.094933,491.469818 77.382393,491.362762 
	C84.225471,491.297821 84.212784,490.987030 82.629883,484.174011 
	C80.867691,476.589325 78.595360,468.915558 78.347000,461.222382 
	C77.225060,426.468933 103.662827,397.216217 138.318878,392.907837 
	C176.719345,388.134003 209.937927,412.721893 217.037994,453.420074 
	C217.570816,456.474365 218.028625,459.541687 218.625427,463.249939 
	C220.268875,462.401062 221.564285,462.050232 222.424606,461.238373 
	C231.125580,453.027710 241.862137,449.249512 253.286346,447.045288 
	C256.800385,446.367249 258.392090,444.973724 258.061218,441.053955 
	C257.599976,435.589722 258.201447,430.033417 257.706085,424.574829 
	C254.756653,392.075073 284.547058,346.172577 332.013824,338.942291 
	C346.520844,336.732605 360.792755,336.912323 375.621460,341.454041 
	C376.412170,335.289459 377.223358,329.621582 377.855621,323.933868 
	C383.673126,271.601807 424.970734,227.521164 477.158051,220.125671 
	C527.624695,212.974030 568.945923,229.934296 598.907837,271.744385 
	C610.588013,288.043427 615.526062,307.172729 617.782654,326.901001 
	C618.228516,330.799011 619.632324,331.569580 623.086121,331.240173 
	C642.011230,329.435211 660.289307,331.670135 677.472046,340.352051 
	C706.273193,354.904388 723.636169,378.190796 730.678467,409.802246 
	C731.000000,421.687561 731.000000,433.375122 730.684875,445.755127 
	C727.014709,466.061127 718.171509,482.884369 704.556335,497.293060 
	C689.562805,513.160583 670.860413,522.454773 649.613220,528.041077 
	C609.103760,528.030640 569.066895,528.069824 528.560425,528.063232 
	C494.068817,528.037476 460.046967,528.057434 425.554932,528.044556 
	C391.730621,528.023560 358.376495,528.035461 324.552673,528.028564 
	C287.727539,528.013062 251.372116,528.016479 214.546402,528.010620 
	C181.111389,528.002563 148.146622,527.988770 115.182014,528.047302 
	C113.454117,528.050354 111.727318,528.668335 110.000000,529.000000 
	C109.250000,529.000000 108.500000,529.000000 107.191849,528.750488 
	C105.755791,528.667236 104.877892,528.833618 104.000000,529.000000 
	C77.312439,529.000000 50.624878,529.000000 23.468658,529.000000 
M467.089813,273.579498 
	C455.948456,278.985870 446.629364,286.591339 439.244385,296.558685 
	C429.175446,310.148499 424.708069,325.592072 424.398468,342.298859 
	C424.345825,345.138428 424.940430,348.590942 426.574707,350.744324 
	C430.896973,356.439636 439.097321,354.688843 440.895081,347.636169 
	C442.321625,342.039795 442.111023,336.037170 443.411194,330.395538 
	C448.674622,307.556396 462.523163,292.103790 485.027222,285.570038 
	C507.894562,278.930908 528.039856,284.768829 545.078796,301.413635 
	C554.661438,310.774597 558.868469,322.706573 561.923584,335.330902 
	C563.425903,341.538727 567.030212,343.984100 571.671387,342.941559 
	C576.464111,341.864990 579.160095,337.498138 578.338318,331.713715 
	C576.845154,321.203644 573.163818,311.442291 567.748962,302.343872 
	C549.687683,271.995941 507.838715,254.022766 467.089813,273.579498 
M669.659912,399.907166 
	C676.809753,411.157471 680.088318,423.338562 677.331238,436.539795 
	C672.457214,459.877045 651.878662,478.970428 627.447632,482.987061 
	C621.238892,484.007874 614.854858,483.953369 608.638794,484.942535 
	C604.292358,485.634155 601.866882,489.772797 602.270752,494.328766 
	C602.674438,498.883057 605.329041,501.538757 610.168335,501.590454 
	C636.799072,501.874969 660.352844,494.492615 678.633850,473.969971 
	C707.592834,441.459961 701.482788,384.923523 653.328247,365.770416 
	C649.832825,364.380127 645.967285,363.584229 642.211853,363.281616 
	C638.699646,362.998657 635.735840,364.562347 634.781677,368.522186 
	C633.828064,372.479462 634.489380,375.875183 638.245850,377.983551 
	C640.405151,379.195496 642.733154,380.169952 645.080627,380.972168 
	C655.175415,384.422180 663.374878,390.314850 669.659912,399.907166 
M318.613525,437.666443 
	C314.428314,430.784546 314.662140,423.284790 316.165436,415.874573 
	C318.286865,405.416901 325.118195,398.787354 335.230652,396.215454 
	C346.816406,393.268829 356.523010,397.223450 362.730682,406.380524 
	C364.596283,409.132538 366.257904,412.072998 368.443726,414.546478 
	C372.057220,418.635437 376.470154,418.289062 379.868805,414.023102 
	C383.814789,409.070190 381.842590,404.179932 379.404022,399.554230 
	C366.670898,375.401062 336.894470,372.121613 317.190857,384.676392 
	C299.715393,395.811462 291.848816,421.349823 300.016632,440.422913 
	C304.902924,451.833069 312.816803,460.694519 325.433716,463.952911 
	C329.492401,465.001099 333.665955,464.593445 335.623322,460.003906 
	C337.493103,455.619781 334.685638,452.934601 331.653259,450.256958 
	C327.306458,446.418701 323.210175,442.296783 318.613525,437.666443 
M536.916992,417.728119 
	C528.545288,395.272156 508.986542,383.756531 485.315216,387.384857 
	C480.338287,388.147736 475.728149,390.072693 473.667175,394.854034 
	C472.719086,397.053528 472.895691,400.637360 474.134705,402.601593 
	C475.165649,404.235931 478.441620,404.748260 480.824402,405.136780 
	C482.536652,405.415955 484.412384,404.453735 486.220947,404.426422 
	C491.344910,404.349091 496.737976,403.440491 501.551208,404.687836 
	C521.749084,409.922150 528.589050,435.455383 514.055237,450.517242 
	C510.252960,454.457672 505.956909,457.918121 501.950531,461.666260 
	C498.975769,464.449280 498.372894,468.379303 500.664825,471.123291 
	C502.421814,473.226807 506.139496,474.237823 509.119080,474.584930 
	C511.134613,474.819702 513.525879,473.304016 515.504517,472.151367 
	C534.419373,461.132172 543.055542,439.591827 536.916992,417.728119 
M151.966171,427.141724 
	C160.376572,428.073212 166.524536,433.239044 172.768936,438.236633 
	C175.356979,440.307861 178.056442,441.787476 181.369415,439.639526 
	C184.870804,437.369385 187.409988,434.076935 186.116180,430.084808 
	C185.017700,426.695465 182.820847,422.704987 179.925842,421.042084 
	C172.513535,416.784485 164.589081,413.287354 156.581711,410.242767 
	C151.198196,408.195801 145.170502,408.413940 140.221054,411.632812 
	C137.800430,413.207031 134.904877,416.900177 135.261154,419.154205 
	C135.680878,421.809753 139.009308,424.720428 141.782761,426.082336 
	C144.410233,427.372620 147.951263,426.802582 151.966171,427.141724 
z"/>
<path fill="#E57F4E" opacity="1.000000" stroke="none" 
	d="
M321.571533,1.000006 
	C324.707458,4.843548 328.545837,8.318577 329.937897,12.590731 
	C338.637939,39.290943 346.795197,66.168076 355.113098,92.992546 
	C355.448181,94.073120 355.591431,95.213173 355.770447,96.069214 
	C331.614990,96.069214 307.629059,96.069214 282.891083,96.069214 
	C283.522430,93.388893 284.009308,90.528893 284.871094,87.786743 
	C292.892487,62.264236 300.856079,36.721951 309.184845,11.299537 
	C310.355164,7.727296 313.404022,4.770488 315.791656,1.264402 
	C317.714355,1.000000 319.428711,1.000000 321.571533,1.000006 
z"/>
<path fill="#F2AF3F" opacity="1.000000" stroke="none" 
	d="
M1.000000,282.416656 
	C3.912654,277.117096 8.449817,274.529388 13.787520,273.302246 
	C41.796791,266.862976 69.821060,260.488831 97.848595,254.129425 
	C98.788300,253.916214 99.818634,254.102356 101.582138,254.102356 
	C101.019142,258.556976 100.311745,262.889099 99.950569,267.249908 
	C98.880684,280.167938 97.944084,293.097015 96.962639,306.022339 
	C96.660507,310.001312 96.264580,313.977997 96.126694,317.963196 
	C95.999374,321.642487 94.503448,322.588654 91.016159,321.430481 
	C78.719208,317.346527 66.356438,313.461182 54.048996,309.408295 
	C40.474262,304.938019 26.904493,300.448853 13.392651,295.793518 
	C8.683447,294.171021 3.925174,292.341919 1.310664,287.135193 
	C1.000000,285.611115 1.000000,284.222198 1.000000,282.416656 
z"/>
<path fill="#FEFEFE" opacity="1.000000" stroke="none" 
	d="
M650.085876,528.090698 
	C670.860413,522.454773 689.562805,513.160583 704.556335,497.293060 
	C718.171509,482.884369 727.014709,466.061127 730.684875,446.223785 
	C731.000000,473.592682 731.000000,501.185333 731.000000,529.000000 
	C704.312866,529.000000 677.625061,529.000000 650.462524,528.770081 
	C649.987732,528.540161 650.085876,528.090698 650.085876,528.090698 
z"/>
<path fill="#96C6D3" opacity="1.000000" stroke="none" 
	d="
M649.613220,528.041077 
	C650.085876,528.090698 649.987732,528.540161 649.993896,528.770081 
	C609.979126,529.000000 569.958191,529.000000 529.472900,528.777100 
	C529.008484,528.554260 529.030090,528.109009 529.030090,528.109009 
	C569.066895,528.069824 609.103760,528.030640 649.613220,528.041077 
z"/>
<path fill="#65ACBE" opacity="1.000000" stroke="none" 
	d="
M215.016693,528.019897 
	C251.372116,528.016479 287.727539,528.013062 324.544403,528.266357 
	C325.005829,528.523071 325.000000,529.000000 325.000000,529.000000 
	C288.645782,529.000000 252.291550,529.000000 215.470856,528.754944 
	C215.004379,528.509888 215.016693,528.019897 215.016693,528.019897 
z"/>
<path fill="#54A3B7" opacity="1.000000" stroke="none" 
	d="
M214.546402,528.010620 
	C215.016693,528.019897 215.004379,528.509888 215.002197,528.754944 
	C180.312439,529.000000 145.624878,529.000000 110.468658,529.000000 
	C111.727318,528.668335 113.454117,528.050354 115.182014,528.047302 
	C148.146622,527.988770 181.111389,528.002563 214.546402,528.010620 
z"/>
<path fill="#84BDCB" opacity="1.000000" stroke="none" 
	d="
M528.560425,528.063232 
	C529.030090,528.109009 529.008484,528.554260 529.004272,528.777100 
	C494.979095,529.000000 460.958221,529.000000 426.472107,528.769287 
	C426.006897,528.538513 426.025085,528.077454 426.025085,528.077454 
	C460.046967,528.057434 494.068817,528.037476 528.560425,528.063232 
z"/>
<path fill="#75B5C5" opacity="1.000000" stroke="none" 
	d="
M425.554932,528.044556 
	C426.025085,528.077454 426.006897,528.538513 426.003448,528.769287 
	C392.645782,529.000000 359.291534,529.000000 325.468658,529.000000 
	C325.000000,529.000000 325.005829,528.523071 325.014099,528.285217 
	C358.376495,528.035461 391.730621,528.023560 425.554932,528.044556 
z"/>
<path fill="#54A3B7" opacity="1.000000" stroke="none" 
	d="
M104.375000,529.000000 
	C104.877892,528.833618 105.755791,528.667236 106.816849,528.750488 
	C106.250000,529.000000 105.500000,529.000000 104.375000,529.000000 
z"/>
<path fill="#F2AE3E" opacity="1.000000" stroke="none" 
	d="
M455.057129,204.912567 
	C447.693390,208.374557 440.219879,211.622681 432.984192,215.334351 
	C395.273651,234.678696 371.996307,265.300018 362.104126,306.362366 
	C359.372864,317.699829 359.234711,317.672089 347.931335,317.920227 
	C306.562469,318.828369 275.174835,337.474579 252.001999,371.924255 
	C251.353897,372.535797 251.203583,372.832153 251.053253,373.128510 
	C251.053253,373.128510 251.100830,373.039978 250.735840,373.077515 
	C242.995239,373.703491 235.473923,375.502411 228.273468,374.635651 
	C211.812805,372.654266 195.532288,369.267395 180.386948,361.991486 
	C162.238678,353.273010 147.842636,340.765381 140.981400,321.264069 
	C135.803833,306.548096 134.997299,291.416962 136.796692,275.836884 
	C139.306549,254.105377 146.234787,233.837738 157.544327,215.538284 
	C174.861481,187.518112 197.911606,165.612457 228.031265,150.598419 
	C264.866974,132.236618 303.459564,127.443855 343.315399,132.518951 
	C358.836700,134.495361 374.029968,140.784683 388.791290,146.588196 
	C411.378723,155.468597 429.409973,171.102844 445.337982,189.055206 
	C449.389038,193.621170 451.860107,199.588928 455.057129,204.912567 
M158.367599,261.924713 
	C157.931366,265.549377 157.123764,269.177704 157.159714,272.797668 
	C157.198364,276.689270 159.494476,279.440552 163.496811,279.990326 
	C167.560608,280.548615 171.309097,279.777161 172.759705,275.213593 
	C173.966568,271.416809 175.076385,267.567505 175.889038,263.670532 
	C181.114517,238.612320 193.833191,217.718170 213.011063,201.308685 
	C223.145905,192.636841 235.331039,186.351791 246.642639,179.070145 
	C250.263824,176.739059 253.097565,174.145187 251.425674,169.348419 
	C250.145203,165.674728 245.707657,163.294876 241.131134,164.201965 
	C238.067413,164.809189 234.929092,165.758804 232.204498,167.250092 
	C194.278259,188.008957 167.854980,217.841766 158.367599,261.924713 
M278.107330,163.578003 
	C285.295166,168.629990 292.792358,165.502350 300.159180,164.287704 
	C304.448425,163.580490 306.978821,160.779724 306.844727,156.329788 
	C306.738678,152.810989 302.490265,148.876923 298.518066,149.113434 
	C292.755890,149.456543 286.895538,150.020615 281.342133,151.491302 
	C275.414978,153.060944 274.187561,157.849960 278.107330,163.578003 
z"/>
<path fill="#E68150" opacity="1.000000" stroke="none" 
	d="
M455.448517,204.956757 
	C451.860107,199.588928 449.389038,193.621170 445.337982,189.055206 
	C429.409973,171.102844 411.378723,155.468597 388.791290,146.588196 
	C374.029968,140.784683 358.836700,134.495361 343.315399,132.518951 
	C303.459564,127.443855 264.866974,132.236618 228.031265,150.598419 
	C197.911606,165.612457 174.861481,187.518112 157.544327,215.538284 
	C146.234787,233.837738 139.306549,254.105377 136.796692,275.836884 
	C134.997299,291.416962 135.803833,306.548096 140.981400,321.264069 
	C147.842636,340.765381 162.238678,353.273010 180.386948,361.991486 
	C195.532288,369.267395 211.812805,372.654266 228.273468,374.635651 
	C235.473923,375.502411 242.995239,373.703491 250.774933,373.109070 
	C242.368683,389.254883 238.043945,406.742859 235.724152,424.836304 
	C235.577927,425.976685 235.155228,427.098175 234.737122,428.180542 
	C234.510071,428.768311 234.021255,429.254944 233.114136,430.557220 
	C231.129898,427.443787 229.182022,424.830383 227.691116,421.978088 
	C215.684982,399.008728 197.366760,383.015930 172.723877,375.633453 
	C162.137085,372.461853 150.413010,372.853333 139.172562,372.171173 
	C130.288895,371.632111 130.110306,372.057251 127.109238,363.548187 
	C118.461739,339.029480 115.692192,313.895538 117.693611,287.893616 
	C120.468246,251.846222 133.458542,219.819733 155.398529,191.777542 
	C187.879471,150.262558 230.844406,125.725067 283.080444,117.849335 
	C334.320557,110.123749 382.184265,119.488106 425.824432,147.650269 
	C444.852753,159.929749 460.723450,175.896088 473.799774,194.493378 
	C474.650787,195.703705 475.249207,197.091614 476.544952,199.454041 
	C469.373047,201.375397 462.606476,203.188156 455.448517,204.956757 
z"/>
<path fill="#E57F4E" opacity="1.000000" stroke="none" 
	d="
M234.668869,109.607971 
	C218.860825,117.837997 203.346603,125.793312 187.978409,134.021378 
	C182.508072,136.950180 181.712418,136.984955 180.379883,130.951538 
	C174.643814,104.980042 169.009262,78.986061 163.389893,52.988991 
	C163.006363,51.214634 162.533661,49.198544 163.007294,47.555759 
	C163.915680,44.405014 164.698822,40.529552 166.947678,38.617764 
	C170.195435,35.856792 174.682205,36.697876 178.029648,39.457024 
	C184.320496,44.642265 190.409454,50.075981 196.509140,55.488892 
	C212.703156,69.859543 228.875305,84.254990 245.001068,98.702080 
	C246.547287,100.087341 247.707748,101.903168 249.608871,104.196548 
	C244.266922,106.116859 239.643600,107.778847 234.668869,109.607971 
z"/>
<path fill="#E57F4E" opacity="1.000000" stroke="none" 
	d="
M412.451996,85.448082 
	C426.725739,73.445778 440.681030,61.616955 454.767822,49.946857 
	C457.425568,47.745056 460.420685,45.731865 463.584320,44.404003 
	C470.574402,41.470074 477.355835,46.737141 475.728638,54.130314 
	C469.234131,83.638039 462.389221,113.068642 455.665222,142.525787 
	C455.633179,142.666138 455.475555,142.777847 454.976135,143.409256 
	C453.292999,142.341354 451.424316,141.381271 449.812683,140.098343 
	C433.131195,126.818878 414.323822,117.371765 394.686584,109.418404 
	C388.836823,107.049179 388.559479,105.873947 393.209473,101.877457 
	C399.515778,96.457481 405.854370,91.075073 412.451996,85.448082 
z"/>
<path fill="#F2AF3F" opacity="1.000000" stroke="none" 
	d="
M76.121773,177.883392 
	C68.404175,168.465317 60.771278,159.432327 53.454834,150.149918 
	C49.186359,144.734497 49.747849,139.593567 55.055588,136.498672 
	C57.190662,135.253738 60.543850,135.003983 63.020966,135.611954 
	C83.521072,140.643326 103.955086,145.946014 124.389175,151.243439 
	C134.181244,153.781982 143.930237,156.486588 153.803040,159.144058 
	C140.031448,179.278000 126.609673,198.900513 112.412178,219.657120 
	C100.459862,205.908783 88.399597,192.036270 76.121773,177.883392 
z"/>
<path fill="#E57F4E" opacity="1.000000" stroke="none" 
	d="
M481.041321,164.852051 
	C512.480103,158.302551 543.517273,151.719406 574.656982,145.663986 
	C577.315552,145.147003 581.725891,147.393372 583.363586,149.729340 
	C584.832336,151.824341 584.531494,156.239868 583.330261,158.861481 
	C581.723022,162.369293 578.655273,165.284760 575.934021,168.191818 
	C565.126892,179.736847 554.288818,191.256271 543.226013,202.553986 
	C541.978516,203.827972 539.130432,204.309769 537.202515,204.010880 
	C527.856018,202.561829 518.530029,200.906815 509.288269,198.902771 
	C506.606476,198.321243 503.574158,196.912613 501.823761,194.905396 
	C494.502075,186.509384 487.574432,177.767532 480.592804,169.079773 
	C479.642151,167.896805 477.328796,166.253006 481.041321,164.852051 
z"/>
<path fill="#E68150" opacity="1.000000" stroke="none" 
	d="
M251.327469,373.066284 
	C251.203583,372.832153 251.353897,372.535797 251.718460,372.104309 
	C251.822357,372.314117 251.712006,372.659058 251.327469,373.066284 
z"/>
<path fill="#FCFDFE" opacity="1.000000" stroke="none" 
	d="
M467.418488,273.395111 
	C507.838715,254.022766 549.687683,271.995941 567.748962,302.343872 
	C573.163818,311.442291 576.845154,321.203644 578.338318,331.713715 
	C579.160095,337.498138 576.464111,341.864990 571.671387,342.941559 
	C567.030212,343.984100 563.425903,341.538727 561.923584,335.330902 
	C558.868469,322.706573 554.661438,310.774597 545.078796,301.413635 
	C528.039856,284.768829 507.894562,278.930908 485.027222,285.570038 
	C462.523163,292.103790 448.674622,307.556396 443.411194,330.395538 
	C442.111023,336.037170 442.321625,342.039795 440.895081,347.636169 
	C439.097321,354.688843 430.896973,356.439636 426.574707,350.744324 
	C424.940430,348.590942 424.345825,345.138428 424.398468,342.298859 
	C424.708069,325.592072 429.175446,310.148499 439.244385,296.558685 
	C446.629364,286.591339 455.948456,278.985870 467.418488,273.395111 
z"/>
<path fill="#FCFEFE" opacity="1.000000" stroke="none" 
	d="
M669.444702,399.613708 
	C663.374878,390.314850 655.175415,384.422180 645.080627,380.972168 
	C642.733154,380.169952 640.405151,379.195496 638.245850,377.983551 
	C634.489380,375.875183 633.828064,372.479462 634.781677,368.522186 
	C635.735840,364.562347 638.699646,362.998657 642.211853,363.281616 
	C645.967285,363.584229 649.832825,364.380127 653.328247,365.770416 
	C701.482788,384.923523 707.592834,441.459961 678.633850,473.969971 
	C660.352844,494.492615 636.799072,501.874969 610.168335,501.590454 
	C605.329041,501.538757 602.674438,498.883057 602.270752,494.328766 
	C601.866882,489.772797 604.292358,485.634155 608.638794,484.942535 
	C614.854858,483.953369 621.238892,484.007874 627.447632,482.987061 
	C651.878662,478.970428 672.457214,459.877045 677.331238,436.539795 
	C680.088318,423.338562 676.809753,411.157471 669.444702,399.613708 
z"/>
<path fill="#FCFEFE" opacity="1.000000" stroke="none" 
	d="
M318.810242,437.981201 
	C323.210175,442.296783 327.306458,446.418701 331.653259,450.256958 
	C334.685638,452.934601 337.493103,455.619781 335.623322,460.003906 
	C333.665955,464.593445 329.492401,465.001099 325.433716,463.952911 
	C312.816803,460.694519 304.902924,451.833069 300.016632,440.422913 
	C291.848816,421.349823 299.715393,395.811462 317.190857,384.676392 
	C336.894470,372.121613 366.670898,375.401062 379.404022,399.554230 
	C381.842590,404.179932 383.814789,409.070190 379.868805,414.023102 
	C376.470154,418.289062 372.057220,418.635437 368.443726,414.546478 
	C366.257904,412.072998 364.596283,409.132538 362.730682,406.380524 
	C356.523010,397.223450 346.816406,393.268829 335.230652,396.215454 
	C325.118195,398.787354 318.286865,405.416901 316.165436,415.874573 
	C314.662140,423.284790 314.428314,430.784546 318.810242,437.981201 
z"/>
<path fill="#FCFDFE" opacity="1.000000" stroke="none" 
	d="
M537.014648,418.118469 
	C543.055542,439.591827 534.419373,461.132172 515.504517,472.151367 
	C513.525879,473.304016 511.134613,474.819702 509.119080,474.584930 
	C506.139496,474.237823 502.421814,473.226807 500.664825,471.123291 
	C498.372894,468.379303 498.975769,464.449280 501.950531,461.666260 
	C505.956909,457.918121 510.252960,454.457672 514.055237,450.517242 
	C528.589050,435.455383 521.749084,409.922150 501.551208,404.687836 
	C496.737976,403.440491 491.344910,404.349091 486.220947,404.426422 
	C484.412384,404.453735 482.536652,405.415955 480.824402,405.136780 
	C478.441620,404.748260 475.165649,404.235931 474.134705,402.601593 
	C472.895691,400.637360 472.719086,397.053528 473.667175,394.854034 
	C475.728149,390.072693 480.338287,388.147736 485.315216,387.384857 
	C508.986542,383.756531 528.545288,395.272156 537.014648,418.118469 
z"/>
<path fill="#FCFDFE" opacity="1.000000" stroke="none" 
	d="
M151.528351,427.096191 
	C147.951263,426.802582 144.410233,427.372620 141.782761,426.082336 
	C139.009308,424.720428 135.680878,421.809753 135.261154,419.154205 
	C134.904877,416.900177 137.800430,413.207031 140.221054,411.632812 
	C145.170502,408.413940 151.198196,408.195801 156.581711,410.242767 
	C164.589081,413.287354 172.513535,416.784485 179.925842,421.042084 
	C182.820847,422.704987 185.017700,426.695465 186.116180,430.084808 
	C187.409988,434.076935 184.870804,437.369385 181.369415,439.639526 
	C178.056442,441.787476 175.356979,440.307861 172.768936,438.236633 
	C166.524536,433.239044 160.376572,428.073212 151.528351,427.096191 
z"/>
<path fill="#FFFEFC" opacity="1.000000" stroke="none" 
	d="
M158.499878,261.524109 
	C167.854980,217.841766 194.278259,188.008957 232.204498,167.250092 
	C234.929092,165.758804 238.067413,164.809189 241.131134,164.201965 
	C245.707657,163.294876 250.145203,165.674728 251.425674,169.348419 
	C253.097565,174.145187 250.263824,176.739059 246.642639,179.070145 
	C235.331039,186.351791 223.145905,192.636841 213.011063,201.308685 
	C193.833191,217.718170 181.114517,238.612320 175.889038,263.670532 
	C175.076385,267.567505 173.966568,271.416809 172.759705,275.213593 
	C171.309097,279.777161 167.560608,280.548615 163.496811,279.990326 
	C159.494476,279.440552 157.198364,276.689270 157.159714,272.797668 
	C157.123764,269.177704 157.931366,265.549377 158.499878,261.524109 
z"/>
<path fill="#FFFEFB" opacity="1.000000" stroke="none" 
	d="
M277.847687,163.299347 
	C274.187561,157.849960 275.414978,153.060944 281.342133,151.491302 
	C286.895538,150.020615 292.755890,149.456543 298.518066,149.113434 
	C302.490265,148.876923 306.738678,152.810989 306.844727,156.329788 
	C306.978821,160.779724 304.448425,163.580490 300.159180,164.287704 
	C292.792358,165.502350 285.295166,168.629990 277.847687,163.299347 
z"/>
</svg>